<?xml version="1.0" encoding="UTF-8" standalone="no"?>
<svg xmlns="http://www.w3.org/2000/svg" viewBox="0 0 173.88 73.519997" height="73.519997" width="173.88">
  <g transform="matrix(1.3333333,0,0,-1.3333333,0,73.52)">
    <g transform="scale(0.1)">
      <path fill="white" d="m 849.625,285.527 c 0,11.309 -9.59,18.477 -21.582,18.477 -11.816,0 -21.934,-6.699 -21.934,-16.582 0,-8.633 4.844,-14.59 27.129,-23.195 9.59,5.48 16.387,12.355 16.387,21.3" />
      <path fill="white" d="m 263.988,385.996 h 45.02 l -22.403,53.563 z" />
      <path fill="white" d="m 977.691,243.457 v 48.301 l -35.214,-48.301 z" />
      <path fill="white" d="m 824.117,256.055 c -11.679,-5.801 -18.691,-13.985 -18.691,-24.18 0,-13.34 10.449,-22.09 23.476,-22.09 12.852,0 23.457,8.281 23.457,20.528 0,10.507 -8.379,17.441 -28.242,25.742" />
      <path fill="white" d="m 1150.89,448.887 c -3.73,0 -6.32,0 -9.9,-0.391 v -63.418 c 4.75,-0.598 7.74,-0.39 12.29,-0.39 22.03,0 36.52,8.496 36.52,32.304 0,18.457 -8.34,31.895 -38.91,31.895" />
      <path fill="white" d="m 1255.13,328.992 c -34.71,-1.59 -38.92,5.637 -57.01,22.852 -7.01,6.664 -18.83,19.961 -33.95,28.625 -4.7,-0.196 -7.85,-0.371 -13.06,-0.371 -4.36,0 -6.94,0.175 -10.12,0.39 v -32.851 c 0,-11.914 4.75,-14.883 15.88,-14.883 h 4.55 v -3.762 h -56.13 v 3.762 h 3.38 c 11.7,0 15.88,3.184 15.88,16.473 v 82.824 c 0,12.312 -3.4,15.879 -14.91,15.879 h -4.35 v 3.769 c 4.76,0 16.87,0.801 25,1.18 8.12,0.422 12.09,0.605 25,0.605 36.7,0 53.16,-15.066 53.16,-35.32 0,-14.863 -10.12,-27.363 -26.4,-32.129 7.34,-5.762 13.28,-9.875 22.61,-19.191 l 15.67,-15 c 11.72,-11.715 19.55,-18.106 34.8,-19.09 z m -154.3,0 h -97.57 v 3.762 c 15.78,0.379 16.89,2.559 16.89,14.59 l 0.06,86.054 c 0,12.04 -1.09,14.207 -16.88,14.59 v 3.75 l 93.83,-0.039 1.57,-24.511 h -3.62 c -2.54,16.277 -7.54,17.41 -14.53,17.41 h -44.06 v -48.047 h 34.51 c 7.09,0 10.45,0.91 11.45,12.355 h 3.75 V 375.82 h -3.75 c -1.57,14.004 -5.34,13.145 -13.42,13.145 h -32.54 v -42.031 c 0,-9.082 4.16,-10.84 11.48,-10.84 h 29.55 c 13.6,0 18.03,2.91 22.8,19.531 h 3.59 z m -105.912,96.047 h -22.48 v -80.851 c 0,-8.719 2.929,-11.805 12.773,-11.805 h 3.711 v -3.399 H 941.91 v 3.399 h 3.692 c 9.843,0 12.773,3.086 12.773,11.805 v 80.851 h -22.461 c -6.465,0 -9.355,-1.769 -11.797,-16.094 h -2.91 l 2.324,22.254 h 83.769 l 2.4,-22.234 h -2.91 c -2.42,14.238 -5.41,16.074 -11.872,16.074 z m 6.702,-189.434 h -12.874 v -28.183 h -11.055 v 28.183 h -43.3 v 3.633 l 49.726,67.754 h 4.629 v -63.535 h 12.874 z m -70.491,-18.515 -1.309,-9.668 h -0.039 v -0.02 l -0.019,0.02 h -61.953 v 4.453 c 4.023,3.926 49.57,38.34 49.57,66.309 0,11.699 -8.887,20.906 -20.586,20.906 -11.055,0 -20.898,-8.406 -24.473,-21.043 h -2.48 c 1.855,17.762 14.629,29.922 31.484,29.922 16.348,0 28.34,-11.848 28.34,-27.586 0,-23.723 -30.039,-46.125 -49.57,-63.293 h 37.031 c 7.773,0.156 10.527,2.656 12.656,12.129 h 2.949 L 931.109,217.09 Z M 828.727,205.84 c -18.516,0 -33.243,11.445 -33.243,25.723 0,10.996 8.555,19.941 25.196,26.066 -16.114,6.598 -23.828,14.266 -23.828,24.922 0,13.804 14.238,25.418 31.367,25.418 17.129,0 30.84,-10.031 30.84,-22.586 0,-10.031 -7.52,-17.738 -22.598,-23.235 17.988,-7.363 26.016,-15.371 26.016,-27.441 0,-16.309 -14.747,-28.867 -33.75,-28.867 z m -38.809,1.582 H 746.48 v 3.769 c 14.805,0 15.508,2.539 15.508,10.235 h 0.02 v 73.015 c -5.274,-4.382 -14.473,-10.195 -20.606,-12.878 l -1.308,2.207 c 9.551,6.113 23.242,17.89 27.187,23.222 h 5.762 v -83.437 c 0.195,-10.078 2.109,-12.012 16.875,-12.364 z M 637.719,388.953 v -41.59 h 0.031 c 0,-12.031 1.113,-14.199 16.883,-14.59 v -3.75 h -48.809 v 3.75 c 14.797,0 15.5,2.559 15.5,10.254 h 0.02 v 94.668 l -0.039,0.02 c 0,7.695 -0.703,10.246 -15.5,10.246 v 3.758 h 48.82 v -3.758 C 638.844,447.578 637.73,445.41 637.73,433.367 l -0.039,0.012 -0.039,-36.828 h 72.461 l 0.039,38.515 c -0.136,10.52 -1.894,12.532 -16.875,12.883 v 3.75 h 48.809 v -3.75 c -14.785,0 -15.508,-2.551 -15.508,-10.254 h -0.051 v -94.668 l 0.078,-0.019 c 0,-7.688 0.704,-10.254 15.52,-10.254 v -3.742 h -48.82 v 3.742 c 14.894,0.371 16.711,2.336 16.867,12.676 v 43.523 z m -43.66,-51.004 c -11.758,-5.605 -21.231,-12.129 -44.512,-12.129 -40.059,0 -63.965,26.438 -63.965,62.938 0,38.285 24.688,65.91 65.938,65.91 20.703,0 35.918,-6.953 45.125,-10.898 l 1.535,-24.434 h -3.77 c -6.496,18.359 -20.195,30.379 -41.719,30.379 -32.949,0 -49.375,-25.477 -49.375,-58.641 0,-35.703 21.563,-59.824 51.563,-59.824 8.984,0 31.453,5.977 44.883,29.863 h 3.73 z m -109.668,110 c -14.817,0 -15.528,-2.558 -15.528,-10.254 v -110.09 h -5.129 l -91.707,106.926 v -84.64 c 0,-14.207 0.684,-17.157 17.469,-17.157 v -3.742 h -80.293 v 3.742 h 2.688 c 11.25,0 15.39,1.192 15.39,6.719 0,3.145 -1.386,6.102 -2.168,8.074 l -12.929,30.879 H 260.777 L 249.82,352.469 c -1.367,-3.758 -3.945,-9.676 -3.945,-12.442 0,-5.332 5.125,-7.293 15.977,-7.293 h 0.711 v -3.742 h -76.161 v 3.742 c 9.258,0 18.348,2.559 17.547,13.028 l -5.711,88.379 h -0.402 L 152.828,328.992 h -4.531 l -46.348,105.149 h -0.41 l -5.332,-88.789 c -0.5781,-10.059 6.914,-12.219 15.801,-12.618 v -3.742 H 70.9531 v 3.742 c 14.4219,0 16.1914,3.164 17.1875,21.114 l 5.2539,83.847 c 0,7.703 -2.3437,10.254 -17.1484,10.254 v 3.75 h 34.5699 l 43.594,-99.64 43.367,99.648 33.274,0.012 v -3.758 c -14.805,0 -17.141,-2.551 -17.141,-10.246 l 6.028,-86.817 c 0.859,-13.253 2.675,-17.812 7.792,-17.812 4.083,0 5.45,2.676 13.028,19.172 l 42.383,99.441 h 14.004 l 45.918,-106.531 c 2.871,-6.234 5.312,-12.043 10.585,-12.043 6.622,0 9.493,5.332 9.493,12.832 v 97.059 c -4.532,3.175 -8.203,4.738 -15.098,4.933 v 3.75 h 29.512 l 82.429,-96.875 v 78.516 c 0,12.051 -1.101,14.219 -16.875,14.609 v 3.75 h 41.282 z M 745.035,332.754 c 15.801,0.379 16.895,2.559 16.895,14.59 l 0.078,86.054 c 0,12.04 -1.113,14.207 -16.895,14.59 v 3.75 l 93.848,-0.039 1.543,-24.511 h -3.613 c -2.539,16.277 -7.539,17.41 -14.512,17.41 h -44.082 v -48.047 h 34.512 c 7.109,0 10.468,0.91 11.445,12.355 h 3.75 V 375.82 h -3.75 c -1.582,14.004 -5.332,13.145 -13.438,13.145 h -32.519 v -42.031 c 0,-9.082 4.18,-10.84 11.465,-10.84 h 29.57 c 13.574,0 18.047,2.91 22.793,19.531 h 3.594 l -3.086,-26.633 h -97.598 z m 106.27,75.195 c 0,13.563 13.164,25.352 31.308,25.352 11.524,0 24.629,-4.063 30.742,-6.856 l 2.344,-17.48 h -2.851 c -4.981,11.758 -16.368,19.57 -28.633,19.57 -11.738,0 -19.922,-5.527 -19.922,-14.668 0,-23.191 56.758,-28.554 56.758,-58.613 0,-16.016 -15.137,-29.434 -35.938,-29.434 -9.843,0 -22.363,2.93 -31.562,5.489 l -3.613,24.316 h 3.125 c 3.789,-16.094 16.542,-24.551 30.449,-24.551 11.914,0 24.531,5.528 24.531,18.418 0,23.504 -56.738,29.871 -56.738,58.457 z M 0.582031,551.445 V 146.699 H 1303.96 V 551.445 H 0.582031" />
      <path fill="white" d="M 30.1055,93.8945 V 27.7227 H 21.8789 V 93.8945 H 0 v 6.9295 H 52.0938 V 93.8945 H 30.1055" />
      <path fill="white" d="m 96.4922,27.7227 v 34.875 c 0,8.4492 -2.2695,13.3203 -10.0664,13.3203 -9.6406,0 -16.4649,-9.5313 -16.4649,-22.3086 V 27.7227 h -8.1211 v 79.0583 h 8.1211 V 80.4688 c 0,-3.5743 -0.2148,-8.0196 -0.8632,-10.7227 l 0.2148,-0.1094 c 3.1445,7.9063 9.8555,12.9961 19.168,12.9961 12.3475,0 16.1365,-7.7969 16.1365,-17.332 V 27.7227 h -8.1248" />
      <path fill="white" d="m 140.25,76.3516 c -7.586,0 -12.992,-5.5235 -14.297,-13.9688 h 27.293 c 0.215,8.336 -4.766,13.9688 -12.996,13.9688 z m 21.227,-20.0391 h -35.954 c -0.543,-16.1328 5.844,-22.8477 17.868,-22.8477 5.632,0 11.589,1.4063 15.593,3.4649 L 159.742,30 c -4.98,-2.0625 -11.047,-3.2539 -17.762,-3.2539 -16.242,0 -24.906,8.7773 -24.906,27.6172 0,16.1406 8.664,28.1601 23.61,28.1601 14.836,0 21.011,-10.289 21.011,-22.2031 0,-0.9765 0,-2.3828 -0.218,-4.0078" />
      <path fill="white" d="m 223.098,26.7461 c -22.633,0 -26.969,12.6719 -26.969,25.2344 v 48.8435 h 8.34 V 52.7422 c 0,-10.5078 3.465,-19.168 19.277,-19.168 13.426,0 20.031,5.6289 20.031,21.2266 v 46.0232 h 8.125 V 55.4492 c 0,-18.7344 -9.851,-28.7031 -28.804,-28.7031" />
      <path fill="white" d="m 302.48,27.7227 v 34.875 c 0,8.4492 -2.277,13.3203 -10.074,13.3203 -9.636,0 -16.461,-9.5313 -16.461,-22.3086 V 27.7227 h -8.125 v 53.8242 h 8.02 c 0,-3.461 -0.328,-8.6602 -0.867,-11.9102 l 0.215,-0.1094 c 3.031,7.7969 9.855,13.1055 19.277,13.1055 12.348,0 16.137,-7.7969 16.137,-17.332 V 27.7227 h -8.122" />
      <path fill="white" d="m 325.98,27.7227 v 53.8242 h 8.122 V 27.7227 Z m 4.118,63.5781 c -3.145,0 -5.633,2.375 -5.633,5.5195 0,3.0313 2.488,5.5237 5.633,5.5237 3.031,0 5.629,-2.4924 5.629,-5.5237 0,-3.1445 -2.598,-5.5195 -5.629,-5.5195" />
      <path fill="white" d="m 371.68,27.7227 h -8.45 l -20.359,53.8242 h 9.207 l 12.567,-35.086 c 1.078,-3.3554 2.054,-6.3945 3.031,-9.5312 h 0.105 c 0.867,2.9219 1.844,6.1758 2.926,9.0937 l 12.887,35.5235 h 8.883 L 371.68,27.7227" />
      <path fill="white" d="m 417.695,76.3516 c -7.582,0 -13,-5.5235 -14.297,-13.9688 h 27.29 c 0.218,8.336 -4.766,13.9688 -12.993,13.9688 z m 21.227,-20.0391 h -35.957 c -0.543,-16.1328 5.848,-22.8477 17.871,-22.8477 5.629,0 11.586,1.4063 15.594,3.4649 L 437.188,30 c -4.981,-2.0625 -11.043,-3.2539 -17.762,-3.2539 -16.242,0 -24.91,8.7773 -24.91,27.6172 0,16.1406 8.668,28.1601 23.609,28.1601 14.84,0 21.012,-10.289 21.012,-22.2031 0,-0.9765 0,-2.3828 -0.215,-4.0078" />
      <path fill="white" d="M 477.797,74.5117 C 465.883,76.4609 460.254,67.3633 460.254,49.2773 V 27.7227 h -8.121 v 53.8242 h 8.012 c 0,-3.5742 -0.434,-8.875 -1.192,-13.5352 l 0.11,-0.1054 c 2.167,7.9023 7.796,15.9179 19.062,14.6171 l -0.328,-8.0117" />
      <path fill="white" d="m 496.426,26.7461 c -4.008,0 -8.125,0.4375 -11.371,1.0859 l 0.215,7.4766 c 3.464,-0.9766 7.796,-1.7344 12.019,-1.7344 7.801,0 13.215,3.461 13.215,9.0977 0,12.9922 -26.207,4.8711 -26.207,24.0429 0,8.9883 7.363,15.8086 21.012,15.8086 3.351,0 7.14,-0.5429 10.504,-1.1914 l -0.215,-7.039 c -3.578,1.1914 -7.477,1.8398 -11.16,1.8398 -7.907,0 -11.801,-3.2461 -11.801,-8.5547 0,-12.8867 26.312,-5.5234 26.312,-23.8242 0,-9.5312 -8.445,-17.0078 -22.523,-17.0078" />
      <path fill="white" d="m 531.406,27.7227 v 53.8242 h 8.121 V 27.7227 Z m 4.117,63.5781 c -3.14,0 -5.636,2.375 -5.636,5.5195 0,3.0313 2.496,5.5237 5.636,5.5237 3.032,0 5.629,-2.4924 5.629,-5.5237 0,-3.1445 -2.597,-5.5195 -5.629,-5.5195" />
      <path fill="white" d="m 573.102,26.8594 c -10.832,0 -13.969,4.7617 -13.969,15.9179 v 32.3829 h -11.699 v 6.3867 h 11.699 V 99.418 l 8.117,2.277 V 81.5469 h 15.813 V 75.1602 H 567.25 V 46.1367 c 0,-9.6367 1.734,-12.1328 8.125,-12.1328 2.707,0 5.523,0.3281 7.688,0.9766 v -7.043 c -2.813,-0.6484 -6.61,-1.0781 -9.961,-1.0781" />
      <path fill="white" d="M 612.52,22.0938 C 606.238,5.52344 601.477,0 589.668,0 c -1.949,0 -4.652,0.214844 -6.82,0.542969 l 0.863,7.468751 c 2.168,-0.75391 4.336,-1.07813 6.719,-1.07813 6.496,0 9.746,3.03125 13.968,14.39841 l 2.493,6.3907 -20.578,53.8242 h 9.312 l 11.266,-30.8633 c 1.73,-4.875 2.922,-8.7695 4.117,-12.7773 h 0.105 c 0.973,3.4648 3.246,10.1796 5.414,16.3515 l 9.641,27.2891 h 8.883 L 612.52,22.0938" />
      <path fill="white" d="m 684.863,75.8086 c -8.445,0 -16.461,-6.3906 -16.461,-20.793 0,-13.7578 5.953,-21.3359 16.461,-21.3359 8.45,0 16.137,6.5 16.137,21.3359 0,12.9961 -5.414,20.793 -16.137,20.793 z m -1.191,-49.0625 c -14.402,0 -23.715,8.7773 -23.715,27.6172 0,15.3828 9.523,28.1601 25.664,28.1601 13.106,0 23.828,-7.2539 23.828,-26.9687 0,-16.0234 -9.859,-28.8086 -25.777,-28.8086" />
      <path fill="white" d="m 753.086,99.5273 c -2.711,0.8677 -5.629,1.1917 -8.445,1.1917 -8.235,0 -11.914,-4.7659 -11.914,-15.1643 v -4.0078 h 15.921 V 75.1602 H 732.727 V 27.7227 h -8.122 v 47.4375 h -11.699 v 6.3867 h 11.699 v 3.7929 c 0,15.0552 7.469,21.9842 20.356,21.9842 3.035,0 5.957,-0.32 8.883,-0.976 l -0.758,-6.8207" />
      <path fill="white" d="m 850.984,27.7227 -6.496,45.0546 c -1.3,8.8829 -1.843,14.293 -2.277,18.3008 h -0.215 c -0.758,-3.0312 -1.84,-7.2539 -3.574,-12.2343 L 821.313,27.7227 h -9.422 l -16.246,47.8671 c -1.84,5.3086 -3.79,11.0508 -4.661,15.4883 h -0.105 c -0.32,-5.8476 -1.082,-11.6953 -1.949,-19.1679 l -5.309,-44.1875 h -8.555 l 10.399,73.1013 h 10.508 l 16.672,-49.3826 c 1.843,-5.3047 3.363,-10.1836 4.117,-14.1836 h 0.218 c 1.083,4.9766 2.165,8.2266 4.004,13.4258 l 17.118,50.1404 h 10.828 l 10.832,-73.1013 h -8.778" />
      <path fill="white" d="m 901.672,52.9609 c -20.25,0 -24.586,-6.3945 -24.586,-11.5898 0,-4.8711 3.465,-8.0156 8.773,-8.0156 9.532,0 15.813,9.4218 15.813,18.7343 z m 0.433,-25.2382 c 0,4.1171 0,8.2343 0.54,11.375 h -0.219 c -2.598,-6.8243 -9.528,-12.3516 -18.735,-12.3516 -8.554,0 -14.726,4.5547 -14.726,13.1055 0,11.2656 11.695,19.0664 32.707,19.0664 v 4.4375 c 0,8.125 -2.926,12.6679 -12.238,12.6679 -5.2,0 -11.7,-1.625 -16.461,-4.6562 l -0.762,7.1484 c 5.094,2.2774 11.375,4.0078 18.629,4.0078 14.84,0 19.062,-7.3632 19.062,-17.5429 V 43.8633 c 0,-5.3086 0,-11.375 0.215,-16.1406 h -8.012" />
      <path fill="white" d="m 960.043,27.7227 v 34.875 c 0,8.4492 -2.273,13.3203 -10.07,13.3203 -9.641,0 -16.461,-9.5313 -16.461,-22.3086 V 27.7227 h -8.125 v 53.8242 h 8.015 c 0,-3.461 -0.328,-8.6602 -0.867,-11.9102 l 0.219,-0.1094 c 3.031,7.7969 9.851,13.1055 19.277,13.1055 12.344,0 16.133,-7.7969 16.133,-17.332 V 27.7227 h -8.121" />
      <path fill="white" d="m 1003.91,27.0742 c -12.023,0 -23.289,5.3086 -23.289,25.668 0,17.6523 8.883,29.5664 26.429,29.5664 4.43,0 8.88,-0.6484 12.67,-1.8398 l -0.87,-7.1485 c -3.57,1.4063 -7.8,2.3828 -12.35,2.3828 -11.582,0 -17.324,-8.5586 -17.324,-21.5547 0,-11.0429 3.465,-20.1445 16.464,-20.1445 4.76,0 9.96,1.1914 13.53,3.0313 L 1019.93,30 c -3.57,-1.4102 -9.42,-2.9258 -16.02,-2.9258" />
      <path fill="white" d="m 1065.85,27.7227 v 34.875 c 0,8.4492 -2.28,13.3203 -10.07,13.3203 -9.64,0 -16.46,-9.5313 -16.46,-22.3086 V 27.7227 h -8.12 v 79.0583 h 8.12 V 80.4688 c 0,-3.5743 -0.22,-8.0196 -0.87,-10.7227 l 0.22,-0.1094 c 3.14,7.9063 9.85,12.9961 19.17,12.9961 12.34,0 16.13,-7.7969 16.13,-17.332 V 27.7227 h -8.12" />
      <path fill="white" d="m 1109.6,76.3516 c -7.58,0 -12.99,-5.5235 -14.29,-13.9688 h 27.29 c 0.22,8.336 -4.77,13.9688 -13,13.9688 z m 21.23,-20.0391 h -35.96 c -0.54,-16.1328 5.85,-22.8477 17.87,-22.8477 5.63,0 11.59,1.4063 15.6,3.4649 L 1129.1,30 c -4.98,-2.0625 -11.05,-3.2539 -17.76,-3.2539 -16.25,0 -24.91,8.7773 -24.91,27.6172 0,16.1406 8.66,28.1601 23.61,28.1601 14.83,0 21,-10.289 21,-22.2031 0,-0.9765 0,-2.3828 -0.21,-4.0078" />
      <path fill="white" d="m 1152.16,26.7461 c -4,0 -8.12,0.4375 -11.37,1.0859 l 0.22,7.4766 c 3.46,-0.9766 7.8,-1.7344 12.02,-1.7344 7.8,0 13.22,3.461 13.22,9.0977 0,12.9922 -26.22,4.8711 -26.22,24.0429 0,8.9883 7.37,15.8086 21.01,15.8086 3.36,0 7.15,-0.5429 10.51,-1.1914 l -0.22,-7.039 c -3.57,1.1914 -7.47,1.8398 -11.15,1.8398 -7.91,0 -11.81,-3.2461 -11.81,-8.5547 0,-12.8867 26.32,-5.5234 26.32,-23.8242 0,-9.5312 -8.44,-17.0078 -22.53,-17.0078" />
      <path fill="white" d="m 1204.26,26.8594 c -10.83,0 -13.98,4.7617 -13.98,15.9179 v 32.3829 h -11.69 v 6.3867 h 11.69 V 99.418 l 8.13,2.277 V 81.5469 h 15.81 v -6.3867 h -15.81 V 46.1367 c 0,-9.6367 1.73,-12.1328 8.12,-12.1328 2.71,0 5.53,0.3281 7.69,0.9766 v -7.043 c -2.82,-0.6484 -6.61,-1.0781 -9.96,-1.0781" />
      <path fill="white" d="m 1244.22,76.3516 c -7.58,0 -13,-5.5235 -14.3,-13.9688 h 27.29 c 0.22,8.336 -4.76,13.9688 -12.99,13.9688 z m 21.22,-20.0391 h -35.95 c -0.54,-16.1328 5.85,-22.8477 17.87,-22.8477 5.63,0 11.59,1.4063 15.59,3.4649 L 1263.71,30 c -4.98,-2.0625 -11.04,-3.2539 -17.76,-3.2539 -16.24,0 -24.91,8.7773 -24.91,27.6172 0,16.1406 8.67,28.1601 23.61,28.1601 14.84,0 21.01,-10.289 21.01,-22.2031 0,-0.9765 0,-2.3828 -0.22,-4.0078" />
      <path fill="white" d="m 1303.78,74.5117 c -11.91,1.9492 -17.54,-7.1484 -17.54,-25.2344 V 27.7227 h -8.12 v 53.8242 h 8.01 c 0,-3.5742 -0.43,-8.875 -1.19,-13.5352 l 0.1,-0.1054 c 2.17,7.9023 7.8,15.9179 19.07,14.6171 l -0.33,-8.0117" />
    </g>
  </g>
</svg>